<svg id="vector" xmlns="http://www.w3.org/2000/svg" viewBox="0 0 82.00391 82.00391"><defs><style>.cls-1{fill:#476fa8;}.cls-2{fill:#262535;}.cls-3{fill:#fff;}</style></defs><rect class="cls-1" x="-22.03339" y="-22.0334" width="128.37041" height="128.37041"/><path id="path_0" data-name="path 0" class="cls-2" d="M55.06661,58.36661h-25.2a1.49871,1.49871,0,0,0-1.50342,1.494q-.00016.05306.00342.106a1.56054,1.56054,0,0,0,1.5,1.6h25.3a1.49871,1.49871,0,0,0,1.50342-1.494q.00017-.053-.00342-.106A1.64458,1.64458,0,0,0,55.06661,58.36661Z"/><rect class="cls-3" x="30.86661" y="21.57977" width="20.44042" height="28.97872"/><path id="path_1" data-name="path 1" class="cls-2" d="M60.96661,22.0666A1.39138,1.39138,0,0,0,59.4708,23.345q-.00475.06067-.00419.12157v37.9a3.34868,3.34868,0,0,1-3.1,3.2h-27.2c-1.8,0-4-1.6-4-3.2v-3.6c0-1.6,1.8-2.6,3.7-2.6h25.9a1.39138,1.39138,0,0,0,1.49582-1.27843q.00474-.06066.00418-.12157v-32.1c0-3.6-2.5-5.9-6.2-5.9h-21c-3.4,0-6.8,2-6.8,5.9v41a6.5748,6.5748,0,0,0,5.8,5.5h28.2a6.36561,6.36561,0,0,0,6.2-6.2v-38.3a1.48584,1.48584,0,0,0-1.36716-1.59572Q61.03317,22.06578,60.96661,22.0666Zm-29.9,26c.1-.5.3-1.2.4-1.7l.9-2.4c.3-.5.4-1.1.6-1.4.2-.4.3-.5.3-.7.1-.2.1-.3.2-.4a1.08735,1.08735,0,0,1-.1-.5c.1-.4.2-.7.3-1.2.2-.5.4-1.2.8-2.1.4-1,.9-2,1.4-3a33.71649,33.71649,0,0,1,1.9-3.2,17.55386,17.55386,0,0,1,2.4-3,22.2559,22.2559,0,0,1,2.7-2.6,9.80282,9.80282,0,0,1,2.7-1.8,5.67235,5.67235,0,0,1,2.6-.8,19.52536,19.52536,0,0,1-.2,2.3c-.1.9-.3,1.9-.4,3a30.28539,30.28539,0,0,1-.6,3.2c-.3,1.1-.4,2.1-.7,3l-3.5,1.9c.3-.1.8-.3,1.1-.4l.9-.3a6.89028,6.89028,0,0,0,.8-.3l-.2,1.3c-.1.3-.2.5-.3.8-.2.5-.3.8-.5,1.3a8.79308,8.79308,0,0,1-.6,1,5.49518,5.49518,0,0,1-.7.9l-2.8.9,2.4.5c-.3.3-.6.5-.9.8s-.7.5-1,.8a7.45815,7.45815,0,0,1-1.2.7,2.29583,2.29583,0,0,1-1.4.4,7.56856,7.56856,0,0,1-1.5-.1,4.93892,4.93892,0,0,1-1.6-.5,7.256,7.256,0,0,0,.5-.9c.2-.3.3-.6.6-1a8.69557,8.69557,0,0,0,.8-1.4c.7-1.4,1.5-2.6,2.2-3.9s1.3-2.4,1.8-3.4q.9-1.8,1.8-3.3c-.7.9-1.5,1.9-2.3,3a36.60874,36.60874,0,0,0-2.3,3.3c-.9,1.3-1.7,2.7-2.7,4.1-.2.3-.3.6-.6,1.1-.3.4-.4.8-.7,1.3s-.5.9-.8,1.4-.5,1-.8,1.4c-.6,1.1-1.2,2.2-1.9,3.3A6.75233,6.75233,0,0,1,31.06661,48.0666Z"/></svg>